<svg xmlns="http://www.w3.org/2000/svg" viewBox="0 0 480 420" role="img" aria-label="福祉とITが寄り添うイメージイラスト">
  <defs>
    <linearGradient id="bgGrad" x1="0" y1="0" x2="1" y2="1">
      <stop offset="0%" stop-color="#e8f4ee"/>
      <stop offset="100%" stop-color="#fbf6ec"/>
    </linearGradient>
  </defs>

  <circle cx="240" cy="210" r="190" fill="url(#bgGrad)"/>

  <!-- 若葉 -->
  <g opacity="0.9">
    <path d="M70 320c10-30 40-45 70-40-5 30-35 50-70 40z" fill="#4a8c6f"/>
    <path d="M420 110c-10-28-38-40-65-34 6 28 33 46 65 34z" fill="#4a8c6f"/>
  </g>

  <!-- ノートパソコン -->
  <g transform="translate(140 200)">
    <rect x="0" y="60" width="200" height="14" rx="6" fill="#1f4d3c"/>
    <rect x="20" y="0" width="160" height="100" rx="10" fill="#ffffff" stroke="#1f4d3c" stroke-width="4"/>
    <rect x="34" y="16" width="132" height="70" rx="4" fill="#e8f4ee"/>
    <path d="M60 70l20-24 18 16 26-30" stroke="#e8965a" stroke-width="5" fill="none" stroke-linecap="round" stroke-linejoin="round"/>
  </g>

  <!-- 人物1 -->
  <g transform="translate(96 150)">
    <circle cx="30" cy="20" r="22" fill="#f4cfa6"/>
    <path d="M0 110c2-34 14-56 30-56s28 22 30 56z" fill="#2c6b54"/>
  </g>

  <!-- 人物2 -->
  <g transform="translate(300 150)">
    <circle cx="30" cy="20" r="22" fill="#f4cfa6"/>
    <path d="M0 110c2-34 14-56 30-56s28 22 30 56z" fill="#e8965a"/>
  </g>

  <!-- スマートフォン -->
  <g transform="translate(330 110)">
    <rect x="0" y="0" width="46" height="80" rx="10" fill="#1f4d3c"/>
    <rect x="5" y="8" width="36" height="58" rx="3" fill="#ffffff"/>
    <circle cx="23" cy="72" r="3" fill="#ffffff"/>
  </g>

  <!-- ハート -->
  <g transform="translate(215 70)">
    <path d="M15 28C-5 14 0-6 15 0c15-6 20 14 0 28z" fill="#e8965a"/>
  </g>
</svg>
